<mxfile host="app.diagrams.net" modified="2023-07-21T12:38:35.598Z" agent="Mozilla/5.0 (Windows NT 10.0; Win64; x64; rv:109.0) Gecko/20100101 Firefox/115.0" etag="o781wprgZIqG1-VBmDdf" version="21.6.3" type="device">
  <diagram name="Page-1" id="VZIIqRRXdtm2IghGHygO">
    <mxGraphModel dx="2074" dy="1152" grid="1" gridSize="10" guides="1" tooltips="1" connect="1" arrows="1" fold="1" page="1" pageScale="1" pageWidth="1100" pageHeight="850" math="0" shadow="0">
      <root>
        <mxCell id="0" />
        <mxCell id="1" parent="0" />
        <mxCell id="U0SIcajHDekRjV8Gr2eX-116" value="" style="shape=table;startSize=0;container=1;collapsible=0;childLayout=tableLayout;" vertex="1" parent="1">
          <mxGeometry x="40" y="220" width="60" height="200" as="geometry" />
        </mxCell>
        <mxCell id="U0SIcajHDekRjV8Gr2eX-117" value="" style="shape=tableRow;horizontal=0;startSize=0;swimlaneHead=0;swimlaneBody=0;strokeColor=inherit;top=0;left=0;bottom=0;right=0;collapsible=0;dropTarget=0;fillColor=none;points=[[0,0.5],[1,0.5]];portConstraint=eastwest;" vertex="1" parent="U0SIcajHDekRjV8Gr2eX-116">
          <mxGeometry width="60" height="40" as="geometry" />
        </mxCell>
        <mxCell id="U0SIcajHDekRjV8Gr2eX-118" value="4" style="shape=partialRectangle;html=1;whiteSpace=wrap;connectable=0;strokeColor=inherit;overflow=hidden;fillColor=none;top=0;left=0;bottom=0;right=0;pointerEvents=1;" vertex="1" parent="U0SIcajHDekRjV8Gr2eX-117">
          <mxGeometry width="60" height="40" as="geometry">
            <mxRectangle width="60" height="40" as="alternateBounds" />
          </mxGeometry>
        </mxCell>
        <mxCell id="U0SIcajHDekRjV8Gr2eX-119" value="" style="shape=tableRow;horizontal=0;startSize=0;swimlaneHead=0;swimlaneBody=0;strokeColor=inherit;top=0;left=0;bottom=0;right=0;collapsible=0;dropTarget=0;fillColor=none;points=[[0,0.5],[1,0.5]];portConstraint=eastwest;" vertex="1" parent="U0SIcajHDekRjV8Gr2eX-116">
          <mxGeometry y="40" width="60" height="40" as="geometry" />
        </mxCell>
        <mxCell id="U0SIcajHDekRjV8Gr2eX-120" value="2" style="shape=partialRectangle;html=1;whiteSpace=wrap;connectable=0;strokeColor=inherit;overflow=hidden;fillColor=none;top=0;left=0;bottom=0;right=0;pointerEvents=1;" vertex="1" parent="U0SIcajHDekRjV8Gr2eX-119">
          <mxGeometry width="60" height="40" as="geometry">
            <mxRectangle width="60" height="40" as="alternateBounds" />
          </mxGeometry>
        </mxCell>
        <mxCell id="U0SIcajHDekRjV8Gr2eX-121" value="" style="shape=tableRow;horizontal=0;startSize=0;swimlaneHead=0;swimlaneBody=0;strokeColor=inherit;top=0;left=0;bottom=0;right=0;collapsible=0;dropTarget=0;fillColor=none;points=[[0,0.5],[1,0.5]];portConstraint=eastwest;" vertex="1" parent="U0SIcajHDekRjV8Gr2eX-116">
          <mxGeometry y="80" width="60" height="40" as="geometry" />
        </mxCell>
        <mxCell id="U0SIcajHDekRjV8Gr2eX-122" value="3" style="shape=partialRectangle;html=1;whiteSpace=wrap;connectable=0;strokeColor=inherit;overflow=hidden;fillColor=none;top=0;left=0;bottom=0;right=0;pointerEvents=1;" vertex="1" parent="U0SIcajHDekRjV8Gr2eX-121">
          <mxGeometry width="60" height="40" as="geometry">
            <mxRectangle width="60" height="40" as="alternateBounds" />
          </mxGeometry>
        </mxCell>
        <mxCell id="U0SIcajHDekRjV8Gr2eX-123" value="" style="shape=tableRow;horizontal=0;startSize=0;swimlaneHead=0;swimlaneBody=0;strokeColor=inherit;top=0;left=0;bottom=0;right=0;collapsible=0;dropTarget=0;fillColor=none;points=[[0,0.5],[1,0.5]];portConstraint=eastwest;" vertex="1" parent="U0SIcajHDekRjV8Gr2eX-116">
          <mxGeometry y="120" width="60" height="40" as="geometry" />
        </mxCell>
        <mxCell id="U0SIcajHDekRjV8Gr2eX-124" value="1" style="shape=partialRectangle;html=1;whiteSpace=wrap;connectable=0;strokeColor=inherit;overflow=hidden;fillColor=none;top=0;left=0;bottom=0;right=0;pointerEvents=1;" vertex="1" parent="U0SIcajHDekRjV8Gr2eX-123">
          <mxGeometry width="60" height="40" as="geometry">
            <mxRectangle width="60" height="40" as="alternateBounds" />
          </mxGeometry>
        </mxCell>
        <mxCell id="U0SIcajHDekRjV8Gr2eX-125" value="" style="shape=tableRow;horizontal=0;startSize=0;swimlaneHead=0;swimlaneBody=0;strokeColor=inherit;top=0;left=0;bottom=0;right=0;collapsible=0;dropTarget=0;fillColor=none;points=[[0,0.5],[1,0.5]];portConstraint=eastwest;" vertex="1" parent="U0SIcajHDekRjV8Gr2eX-116">
          <mxGeometry y="160" width="60" height="40" as="geometry" />
        </mxCell>
        <mxCell id="U0SIcajHDekRjV8Gr2eX-126" value="0" style="shape=partialRectangle;html=1;whiteSpace=wrap;connectable=0;strokeColor=inherit;overflow=hidden;fillColor=none;top=0;left=0;bottom=0;right=0;pointerEvents=1;" vertex="1" parent="U0SIcajHDekRjV8Gr2eX-125">
          <mxGeometry width="60" height="40" as="geometry">
            <mxRectangle width="60" height="40" as="alternateBounds" />
          </mxGeometry>
        </mxCell>
        <mxCell id="U0SIcajHDekRjV8Gr2eX-127" value="" style="shape=table;startSize=0;container=1;collapsible=0;childLayout=tableLayout;" vertex="1" parent="1">
          <mxGeometry x="40" y="100" width="180" height="40" as="geometry" />
        </mxCell>
        <mxCell id="U0SIcajHDekRjV8Gr2eX-128" value="" style="shape=tableRow;horizontal=0;startSize=0;swimlaneHead=0;swimlaneBody=0;strokeColor=inherit;top=0;left=0;bottom=0;right=0;collapsible=0;dropTarget=0;fillColor=none;points=[[0,0.5],[1,0.5]];portConstraint=eastwest;" vertex="1" parent="U0SIcajHDekRjV8Gr2eX-127">
          <mxGeometry width="180" height="40" as="geometry" />
        </mxCell>
        <mxCell id="U0SIcajHDekRjV8Gr2eX-129" value="Capacity" style="shape=partialRectangle;html=1;whiteSpace=wrap;connectable=0;strokeColor=inherit;overflow=hidden;fillColor=none;top=0;left=0;bottom=0;right=0;pointerEvents=1;" vertex="1" parent="U0SIcajHDekRjV8Gr2eX-128">
          <mxGeometry width="60" height="40" as="geometry">
            <mxRectangle width="60" height="40" as="alternateBounds" />
          </mxGeometry>
        </mxCell>
        <mxCell id="U0SIcajHDekRjV8Gr2eX-130" value="Size" style="shape=partialRectangle;html=1;whiteSpace=wrap;connectable=0;strokeColor=inherit;overflow=hidden;fillColor=none;top=0;left=0;bottom=0;right=0;pointerEvents=1;" vertex="1" parent="U0SIcajHDekRjV8Gr2eX-128">
          <mxGeometry x="60" width="60" height="40" as="geometry">
            <mxRectangle width="60" height="40" as="alternateBounds" />
          </mxGeometry>
        </mxCell>
        <mxCell id="U0SIcajHDekRjV8Gr2eX-131" value="" style="shape=partialRectangle;html=1;whiteSpace=wrap;connectable=0;strokeColor=inherit;overflow=hidden;fillColor=none;top=0;left=0;bottom=0;right=0;pointerEvents=1;" vertex="1" parent="U0SIcajHDekRjV8Gr2eX-128">
          <mxGeometry x="120" width="60" height="40" as="geometry">
            <mxRectangle width="60" height="40" as="alternateBounds" />
          </mxGeometry>
        </mxCell>
        <mxCell id="U0SIcajHDekRjV8Gr2eX-132" value="" style="shape=table;startSize=0;container=1;collapsible=0;childLayout=tableLayout;" vertex="1" parent="1">
          <mxGeometry x="200" y="220" width="60" height="200" as="geometry" />
        </mxCell>
        <mxCell id="U0SIcajHDekRjV8Gr2eX-133" value="" style="shape=tableRow;horizontal=0;startSize=0;swimlaneHead=0;swimlaneBody=0;strokeColor=inherit;top=0;left=0;bottom=0;right=0;collapsible=0;dropTarget=0;fillColor=none;points=[[0,0.5],[1,0.5]];portConstraint=eastwest;" vertex="1" parent="U0SIcajHDekRjV8Gr2eX-132">
          <mxGeometry width="60" height="40" as="geometry" />
        </mxCell>
        <mxCell id="U0SIcajHDekRjV8Gr2eX-134" value="52" style="shape=partialRectangle;html=1;whiteSpace=wrap;connectable=0;strokeColor=inherit;overflow=hidden;fillColor=none;top=0;left=0;bottom=0;right=0;pointerEvents=1;" vertex="1" parent="U0SIcajHDekRjV8Gr2eX-133">
          <mxGeometry width="60" height="40" as="geometry">
            <mxRectangle width="60" height="40" as="alternateBounds" />
          </mxGeometry>
        </mxCell>
        <mxCell id="U0SIcajHDekRjV8Gr2eX-135" value="" style="shape=tableRow;horizontal=0;startSize=0;swimlaneHead=0;swimlaneBody=0;strokeColor=inherit;top=0;left=0;bottom=0;right=0;collapsible=0;dropTarget=0;fillColor=none;points=[[0,0.5],[1,0.5]];portConstraint=eastwest;" vertex="1" parent="U0SIcajHDekRjV8Gr2eX-132">
          <mxGeometry y="40" width="60" height="40" as="geometry" />
        </mxCell>
        <mxCell id="U0SIcajHDekRjV8Gr2eX-136" value="42" style="shape=partialRectangle;html=1;whiteSpace=wrap;connectable=0;strokeColor=inherit;overflow=hidden;fillColor=none;top=0;left=0;bottom=0;right=0;pointerEvents=1;" vertex="1" parent="U0SIcajHDekRjV8Gr2eX-135">
          <mxGeometry width="60" height="40" as="geometry">
            <mxRectangle width="60" height="40" as="alternateBounds" />
          </mxGeometry>
        </mxCell>
        <mxCell id="U0SIcajHDekRjV8Gr2eX-137" value="" style="shape=tableRow;horizontal=0;startSize=0;swimlaneHead=0;swimlaneBody=0;strokeColor=inherit;top=0;left=0;bottom=0;right=0;collapsible=0;dropTarget=0;fillColor=none;points=[[0,0.5],[1,0.5]];portConstraint=eastwest;" vertex="1" parent="U0SIcajHDekRjV8Gr2eX-132">
          <mxGeometry y="80" width="60" height="40" as="geometry" />
        </mxCell>
        <mxCell id="U0SIcajHDekRjV8Gr2eX-138" value="31" style="shape=partialRectangle;html=1;whiteSpace=wrap;connectable=0;strokeColor=inherit;overflow=hidden;fillColor=none;top=0;left=0;bottom=0;right=0;pointerEvents=1;" vertex="1" parent="U0SIcajHDekRjV8Gr2eX-137">
          <mxGeometry width="60" height="40" as="geometry">
            <mxRectangle width="60" height="40" as="alternateBounds" />
          </mxGeometry>
        </mxCell>
        <mxCell id="U0SIcajHDekRjV8Gr2eX-139" value="" style="shape=tableRow;horizontal=0;startSize=0;swimlaneHead=0;swimlaneBody=0;strokeColor=inherit;top=0;left=0;bottom=0;right=0;collapsible=0;dropTarget=0;fillColor=none;points=[[0,0.5],[1,0.5]];portConstraint=eastwest;" vertex="1" parent="U0SIcajHDekRjV8Gr2eX-132">
          <mxGeometry y="120" width="60" height="40" as="geometry" />
        </mxCell>
        <mxCell id="U0SIcajHDekRjV8Gr2eX-140" value="21" style="shape=partialRectangle;html=1;whiteSpace=wrap;connectable=0;strokeColor=inherit;overflow=hidden;fillColor=none;top=0;left=0;bottom=0;right=0;pointerEvents=1;" vertex="1" parent="U0SIcajHDekRjV8Gr2eX-139">
          <mxGeometry width="60" height="40" as="geometry">
            <mxRectangle width="60" height="40" as="alternateBounds" />
          </mxGeometry>
        </mxCell>
        <mxCell id="U0SIcajHDekRjV8Gr2eX-141" value="" style="shape=tableRow;horizontal=0;startSize=0;swimlaneHead=0;swimlaneBody=0;strokeColor=inherit;top=0;left=0;bottom=0;right=0;collapsible=0;dropTarget=0;fillColor=none;points=[[0,0.5],[1,0.5]];portConstraint=eastwest;" vertex="1" parent="U0SIcajHDekRjV8Gr2eX-132">
          <mxGeometry y="160" width="60" height="40" as="geometry" />
        </mxCell>
        <mxCell id="U0SIcajHDekRjV8Gr2eX-142" value="22" style="shape=partialRectangle;html=1;whiteSpace=wrap;connectable=0;strokeColor=inherit;overflow=hidden;fillColor=none;top=0;left=0;bottom=0;right=0;pointerEvents=1;" vertex="1" parent="U0SIcajHDekRjV8Gr2eX-141">
          <mxGeometry width="60" height="40" as="geometry">
            <mxRectangle width="60" height="40" as="alternateBounds" />
          </mxGeometry>
        </mxCell>
        <mxCell id="U0SIcajHDekRjV8Gr2eX-143" value="&lt;font style=&quot;font-size: 20px;&quot;&gt;Permutations&lt;br&gt;&lt;/font&gt;" style="text;html=1;strokeColor=none;fillColor=none;align=center;verticalAlign=middle;whiteSpace=wrap;rounded=0;" vertex="1" parent="1">
          <mxGeometry x="35" y="60" width="190" height="40" as="geometry" />
        </mxCell>
        <mxCell id="U0SIcajHDekRjV8Gr2eX-144" value="" style="curved=1;endArrow=classic;html=1;rounded=0;" edge="1" parent="1" target="U0SIcajHDekRjV8Gr2eX-117">
          <mxGeometry width="50" height="50" relative="1" as="geometry">
            <mxPoint x="190" y="120" as="sourcePoint" />
            <mxPoint x="240" y="70" as="targetPoint" />
            <Array as="points">
              <mxPoint x="140" y="190" />
              <mxPoint x="110" y="170" />
            </Array>
          </mxGeometry>
        </mxCell>
        <mxCell id="U0SIcajHDekRjV8Gr2eX-145" value="" style="endArrow=none;dashed=1;html=1;dashPattern=1 3;strokeWidth=2;rounded=0;entryX=0;entryY=0.5;entryDx=0;entryDy=0;" edge="1" parent="1" target="U0SIcajHDekRjV8Gr2eX-133">
          <mxGeometry width="50" height="50" relative="1" as="geometry">
            <mxPoint x="100" y="400" as="sourcePoint" />
            <mxPoint x="150" y="350" as="targetPoint" />
          </mxGeometry>
        </mxCell>
        <mxCell id="U0SIcajHDekRjV8Gr2eX-146" value="" style="endArrow=none;dashed=1;html=1;dashPattern=1 3;strokeWidth=2;rounded=0;entryX=0;entryY=0.5;entryDx=0;entryDy=0;" edge="1" parent="1" target="U0SIcajHDekRjV8Gr2eX-141">
          <mxGeometry width="50" height="50" relative="1" as="geometry">
            <mxPoint x="100" y="240" as="sourcePoint" />
            <mxPoint x="150" y="190" as="targetPoint" />
          </mxGeometry>
        </mxCell>
        <mxCell id="U0SIcajHDekRjV8Gr2eX-147" value="" style="endArrow=none;dashed=1;html=1;dashPattern=1 3;strokeWidth=2;rounded=0;entryX=0;entryY=0.5;entryDx=0;entryDy=0;exitX=1;exitY=0.5;exitDx=0;exitDy=0;" edge="1" parent="1" source="U0SIcajHDekRjV8Gr2eX-119" target="U0SIcajHDekRjV8Gr2eX-137">
          <mxGeometry width="50" height="50" relative="1" as="geometry">
            <mxPoint x="100" y="290" as="sourcePoint" />
            <mxPoint x="150" y="240" as="targetPoint" />
          </mxGeometry>
        </mxCell>
        <mxCell id="U0SIcajHDekRjV8Gr2eX-148" value="" style="endArrow=none;dashed=1;html=1;dashPattern=1 3;strokeWidth=2;rounded=0;exitX=1;exitY=0.5;exitDx=0;exitDy=0;entryX=0;entryY=0.5;entryDx=0;entryDy=0;" edge="1" parent="1" source="U0SIcajHDekRjV8Gr2eX-121" target="U0SIcajHDekRjV8Gr2eX-139">
          <mxGeometry width="50" height="50" relative="1" as="geometry">
            <mxPoint x="120" y="330" as="sourcePoint" />
            <mxPoint x="170" y="280" as="targetPoint" />
          </mxGeometry>
        </mxCell>
        <mxCell id="U0SIcajHDekRjV8Gr2eX-149" value="" style="endArrow=none;dashed=1;html=1;dashPattern=1 3;strokeWidth=2;rounded=0;exitX=1.017;exitY=0.7;exitDx=0;exitDy=0;exitPerimeter=0;entryX=-0.017;entryY=0.675;entryDx=0;entryDy=0;entryPerimeter=0;" edge="1" parent="1" source="U0SIcajHDekRjV8Gr2eX-116" target="U0SIcajHDekRjV8Gr2eX-135">
          <mxGeometry width="50" height="50" relative="1" as="geometry">
            <mxPoint x="150" y="470" as="sourcePoint" />
            <mxPoint x="200" y="420" as="targetPoint" />
          </mxGeometry>
        </mxCell>
        <mxCell id="U0SIcajHDekRjV8Gr2eX-155" value="" style="shape=table;startSize=0;container=1;collapsible=0;childLayout=tableLayout;" vertex="1" parent="1">
          <mxGeometry x="290" y="100" width="180" height="40" as="geometry" />
        </mxCell>
        <mxCell id="U0SIcajHDekRjV8Gr2eX-156" value="" style="shape=tableRow;horizontal=0;startSize=0;swimlaneHead=0;swimlaneBody=0;strokeColor=inherit;top=0;left=0;bottom=0;right=0;collapsible=0;dropTarget=0;fillColor=none;points=[[0,0.5],[1,0.5]];portConstraint=eastwest;" vertex="1" parent="U0SIcajHDekRjV8Gr2eX-155">
          <mxGeometry width="180" height="40" as="geometry" />
        </mxCell>
        <mxCell id="U0SIcajHDekRjV8Gr2eX-157" value="Capacity" style="shape=partialRectangle;html=1;whiteSpace=wrap;connectable=0;strokeColor=inherit;overflow=hidden;fillColor=none;top=0;left=0;bottom=0;right=0;pointerEvents=1;" vertex="1" parent="U0SIcajHDekRjV8Gr2eX-156">
          <mxGeometry width="60" height="40" as="geometry">
            <mxRectangle width="60" height="40" as="alternateBounds" />
          </mxGeometry>
        </mxCell>
        <mxCell id="U0SIcajHDekRjV8Gr2eX-158" value="Size" style="shape=partialRectangle;html=1;whiteSpace=wrap;connectable=0;strokeColor=inherit;overflow=hidden;fillColor=none;top=0;left=0;bottom=0;right=0;pointerEvents=1;" vertex="1" parent="U0SIcajHDekRjV8Gr2eX-156">
          <mxGeometry x="60" width="60" height="40" as="geometry">
            <mxRectangle width="60" height="40" as="alternateBounds" />
          </mxGeometry>
        </mxCell>
        <mxCell id="U0SIcajHDekRjV8Gr2eX-159" value="" style="shape=partialRectangle;html=1;whiteSpace=wrap;connectable=0;strokeColor=inherit;overflow=hidden;fillColor=none;top=0;left=0;bottom=0;right=0;pointerEvents=1;" vertex="1" parent="U0SIcajHDekRjV8Gr2eX-156">
          <mxGeometry x="120" width="60" height="40" as="geometry">
            <mxRectangle width="60" height="40" as="alternateBounds" />
          </mxGeometry>
        </mxCell>
        <mxCell id="U0SIcajHDekRjV8Gr2eX-160" value="" style="curved=1;endArrow=classic;html=1;rounded=0;entryX=0.467;entryY=-0.05;entryDx=0;entryDy=0;entryPerimeter=0;" edge="1" parent="1" target="U0SIcajHDekRjV8Gr2eX-133">
          <mxGeometry width="50" height="50" relative="1" as="geometry">
            <mxPoint x="440" y="120" as="sourcePoint" />
            <mxPoint x="490" y="70" as="targetPoint" />
            <Array as="points">
              <mxPoint x="440" y="180" />
              <mxPoint x="250" y="180" />
            </Array>
          </mxGeometry>
        </mxCell>
        <mxCell id="U0SIcajHDekRjV8Gr2eX-161" value="" style="endArrow=classic;html=1;rounded=0;entryX=1.017;entryY=0.2;entryDx=0;entryDy=0;entryPerimeter=0;fillColor=#f8cecc;strokeColor=#b85450;exitX=0.911;exitY=1;exitDx=0;exitDy=0;exitPerimeter=0;" edge="1" parent="1" source="U0SIcajHDekRjV8Gr2eX-127" target="U0SIcajHDekRjV8Gr2eX-117">
          <mxGeometry width="50" height="50" relative="1" as="geometry">
            <mxPoint x="225" y="105" as="sourcePoint" />
            <mxPoint x="275" y="55" as="targetPoint" />
          </mxGeometry>
        </mxCell>
        <mxCell id="U0SIcajHDekRjV8Gr2eX-162" value="" style="endArrow=classic;html=1;rounded=0;fillColor=#f8cecc;strokeColor=#b85450;entryX=0.706;entryY=1;entryDx=0;entryDy=0;entryPerimeter=0;" edge="1" parent="1" target="U0SIcajHDekRjV8Gr2eX-156">
          <mxGeometry width="50" height="50" relative="1" as="geometry">
            <mxPoint x="100" y="250" as="sourcePoint" />
            <mxPoint x="410" y="150" as="targetPoint" />
          </mxGeometry>
        </mxCell>
        <mxCell id="U0SIcajHDekRjV8Gr2eX-163" value="" style="endArrow=classic;html=1;rounded=0;exitX=0.906;exitY=1.025;exitDx=0;exitDy=0;exitPerimeter=0;entryX=1;entryY=0.5;entryDx=0;entryDy=0;fillColor=#f8cecc;strokeColor=#b85450;" edge="1" parent="1" source="U0SIcajHDekRjV8Gr2eX-155" target="U0SIcajHDekRjV8Gr2eX-141">
          <mxGeometry width="50" height="50" relative="1" as="geometry">
            <mxPoint x="520" y="470" as="sourcePoint" />
            <mxPoint x="570" y="420" as="targetPoint" />
          </mxGeometry>
        </mxCell>
        <mxCell id="U0SIcajHDekRjV8Gr2eX-164" value="&lt;font style=&quot;font-size: 20px;&quot;&gt;Data&lt;/font&gt;" style="text;html=1;strokeColor=none;fillColor=none;align=center;verticalAlign=middle;whiteSpace=wrap;rounded=0;" vertex="1" parent="1">
          <mxGeometry x="285" y="60" width="190" height="40" as="geometry" />
        </mxCell>
        <mxCell id="U0SIcajHDekRjV8Gr2eX-165" value="" style="endArrow=classic;html=1;rounded=0;entryX=1;entryY=0.5;entryDx=0;entryDy=0;fillColor=#f8cecc;strokeColor=#b85450;" edge="1" parent="1" target="U0SIcajHDekRjV8Gr2eX-128">
          <mxGeometry width="50" height="50" relative="1" as="geometry">
            <mxPoint x="285" y="60" as="sourcePoint" />
            <mxPoint x="335" y="10" as="targetPoint" />
          </mxGeometry>
        </mxCell>
      </root>
    </mxGraphModel>
  </diagram>
</mxfile>
